{"title":"OSU_VS_Arkansas_Sugar_Bowl_1-4-2011_Second_Quarter","uid":6084280,"size":670753474,"categoryP":"video","categoryS":"tv_shows","magnet":"?xt=urn:btih:b2973d0eafa6a8bb38fa36056f8f976b7901b2c2&amp;dn=OSU_VS_Arkansas_Sugar_Bowl_1-4-2011_Second_Quarter&amp;tr=udp%3A%2F%2Ftracker.openbittorrent.com%3A80&amp;tr=udp%3A%2F%2Fopen.demonii.com%3A1337&amp;tr=udp%3A%2F%2Ftracker.coppersurfer.tk%3A6969&amp;tr=udp%3A%2F%2Fexodus.desync.com%3A6969","seeders":0,"leechers":0,"uploader":"thetorrentlord","files":2,"time":1294252578,"description":"This is from a SD broadcast. \n\n******************************************************************************************************************\n\nOSU_VS_Arkansas_Sugar_Bowl_1-4-2011_Second_Quarter.avi\nFormat                           : AVI\nFormat/Info                      : Audio Video Interleave\nFile size                        : 640 MiB\nDuration                         : 1h 24mn\nOverall bit rate                 : 1 062 Kbps\nMovie name                       : 20110104_2.mpg\nDirector                         : created.with.SUPER(C).v2010.bld.37\nWriting application              : SUPER(C)   \n\nVideo\nID                               : 0\nFormat                           : MPEG-4 Visual\nFormat profile                   : Simple@L3\nFormat settings, BVOP            : No\nFormat settings, QPel            : No\nFormat settings, GMC             : No warppoints\nFormat settings, Matrix          : Default (H.263)\nCodec ID                         : XVID\nCodec ID/Hint                    : XviD\nDuration                         : 42mn 6s\nBit rate                         : 2 016 Kbps\nWidth                            : 624 pixels\nHeight                           : 352 pixels\nDisplay aspect ratio             : 16:9\nFrame rate                       : 23.976 fps\nColor space                      : YUV\nChroma subsampling               : 4:2:0\nBit depth                        : 8 bits\nScan type                        : Progressive\nBits/(Pixel*Frame)               : 0.383\nStream size                      : 607 MiB (95%)\nWriting library                  : XviD 1.1.2 (UTC 2006-11-01)\n\nAudio\nID                               : 1\nFormat                           : MPEG Audio\nFormat version                   : Version 2\nFormat profile                   : Layer 3\nMode                             : Joint stereo\nMode extension                   : MS Stereo\nCodec ID                         : 55\nCodec ID/Hint                    : MP3\nDuration                         : 1h 24mn\nBit rate mode                    : Constant\nBit rate                         : 96.0 Kbps\nChannel(s)                       : 2 channels\nSampling rate                    : 22.05 KHz\nStream size                      : 28.9 MiB (5%)\nAlignment                        : Aligned on interleaves\nInterleave, duration             : 26 ms (0.63 video frame)\nInterleave, preload duration     : 26 ms\nWriting library                  : LAME3.98\n\n","torrent":{"xt":"urn:btih:b2973d0eafa6a8bb38fa36056f8f976b7901b2c2","amp;dn":"OSU_VS_Arkansas_Sugar_Bowl_1-4-2011_Second_Quarter","amp;tr":["udp%3A%2F%2Ftracker.openbittorrent.com%3A80","udp%3A%2F%2Fopen.demonii.com%3A1337","udp%3A%2F%2Ftracker.coppersurfer.tk%3A6969","udp%3A%2F%2Fexodus.desync.com%3A6969"],"infoHash":"b2973d0eafa6a8bb38fa36056f8f976b7901b2c2","infoHashBuffer":{"type":"Buffer","data":[178,151,61,14,175,166,168,187,56,250,54,5,111,143,151,107,121,1,178,194]},"announce":[],"urlList":[]}}